<svg xmlns="http://www.w3.org/2000/svg">
    <symbol id="gear-fill" viewBox="0 0 16 16">
        <path d="M9.405 1.05c-.413-1.4-2.397-1.4-2.81 0l-.1.34a1.464 1.464 0 0 1-2.105.872l-.31-.17c-1.283-.698-2.686.705-1.987 1.987l.169.311c.446.82.023 1.841-.872 2.105l-.34.1c-1.4.413-1.4 2.397 0 2.81l.34.1a1.464 1.464 0 0 1 .872 2.105l-.17.31c-.698 1.283.705 2.686 1.987 1.987l.311-.169a1.464 1.464 0 0 1 2.105.872l.1.34c.413 1.4 2.397 1.4 2.81 0l.1-.34a1.464 1.464 0 0 1 2.105-.872l.31.17c1.283.698 2.686-.705 1.987-1.987l-.169-.311a1.464 1.464 0 0 1 .872-2.105l.34-.1c1.4-.413 1.4-2.397 0-2.81l-.34-.1a1.464 1.464 0 0 1-.872-2.105l.17-.31c.698-1.283-.705-2.686-1.987-1.987l-.311.169a1.464 1.464 0 0 1-2.105-.872zM8 10.93a2.929 2.929 0 1 1 0-5.86 2.929 2.929 0 0 1 0 5.858z"/>
    </symbol>

    <symbol id="bug-fill" viewBox="0 0 16 16">
        <path d="M4.978.855a.5.5 0 1 0-.956.29l.41 1.352A5 5 0 0 0 3 6h10a5 5 0 0 0-1.432-3.503l.41-1.352a.5.5 0 1 0-.956-.29l-.291.956A5 5 0 0 0 8 1a5 5 0 0 0-2.731.811l-.29-.956z"/>
        <path d="M13 6v1H8.5v8.975A5 5 0 0 0 13 11h.5a.5.5 0 0 1 .5.5v.5a.5.5 0 1 0 1 0v-.5a1.5 1.5 0 0 0-1.5-1.5H13V9h1.5a.5.5 0 0 0 0-1H13V7h.5A1.5 1.5 0 0 0 15 5.5V5a.5.5 0 0 0-1 0v.5a.5.5 0 0 1-.5.5zm-5.5 9.975V7H3V6h-.5a.5.5 0 0 1-.5-.5V5a.5.5 0 0 0-1 0v.5A1.5 1.5 0 0 0 2.5 7H3v1H1.5a.5.5 0 0 0 0 1H3v1h-.5A1.5 1.5 0 0 0 1 11.5v.5a.5.5 0 1 0 1 0v-.5a.5.5 0 0 1 .5-.5H3a5 5 0 0 0 4.5 4.975"/>
    </symbol>

    <symbol id="cash" viewBox="0 0 16 16">
        <path d="M8 10a2 2 0 1 0 0-4 2 2 0 0 0 0 4"/>
        <path d="M0 4a1 1 0 0 1 1-1h14a1 1 0 0 1 1 1v8a1 1 0 0 1-1 1H1a1 1 0 0 1-1-1zm3 0a2 2 0 0 1-2 2v4a2 2 0 0 1 2 2h10a2 2 0 0 1 2-2V6a2 2 0 0 1-2-2z"/>
    </symbol>

    <symbol id="file-code-fill" viewBox="0 0 16 16">
        <path d="M12 0H4a2 2 0 0 0-2 2v12a2 2 0 0 0 2 2h8a2 2 0 0 0 2-2V2a2 2 0 0 0-2-2M6.646 5.646a.5.5 0 1 1 .708.708L5.707 8l1.647 1.646a.5.5 0 0 1-.708.708l-2-2a.5.5 0 0 1 0-.708zm2.708 0 2 2a.5.5 0 0 1 0 .708l-2 2a.5.5 0 0 1-.708-.708L10.293 8 8.646 6.354a.5.5 0 1 1 .708-.708"/>
    </symbol>

    <symbol id="chevron-up" viewBox="0 0 16 16">
        <path fill-rule="evenodd"
              d="M7.646 4.646a.5.5 0 0 1 .708 0l6 6a.5.5 0 0 1-.708.708L8 5.707l-5.646 5.647a.5.5 0 0 1-.708-.708z"/>
    </symbol>
</svg>
